<svg width="20" height="20" viewBox="0 0 20 20" fill="none" xmlns="http://www.w3.org/2000/svg">
<path d="M19.1056 0.892069C17.9164 -0.297356 15.9882 -0.297356 14.7989 0.892069L14.5269 1.16418L18.8335 5.47153L19.1056 5.19941C20.2948 4.00999 20.2948 2.08149 19.1056 0.892069Z" fill="#FFC726"/>
<path d="M12.6489 3.03735L13.6925 1.99358L17.9986 6.30027L16.9549 7.34404L12.6489 3.03735Z" fill="#FFC726"/>
<path d="M12.3022 10.7993L14.0879 12.5852L16.2676 8.30809L15.1031 7.14331L12.3022 10.7993Z" fill="#FFC726"/>
<path d="M9.09562 9.25269L3.37877 13.6337C3.2097 14.4389 3.43708 15.3108 4.06223 15.936C4.68737 16.5612 5.55908 16.7887 6.36423 16.6196L10.7446 10.9018L9.09562 9.25269Z" fill="#FFC726"/>
<path d="M14.2705 6.30608L13.6954 5.73096L10.04 8.53223L11.4697 9.96205L14.2705 6.30608Z" fill="#FFC726"/>
<path d="M12.8561 4.89577L11.6915 3.73096L7.41504 5.91109L9.20067 7.69705L12.8561 4.89577Z" fill="#FFC726"/>
<path d="M6.82129 17.9476C6.86421 18.4567 7.07996 18.9538 7.46936 19.3433C8.34474 20.2188 9.76398 20.2188 10.6393 19.3433L13.5246 13.6819L11.5796 11.7366L6.82129 17.9476Z" fill="#FFC726"/>
<path d="M6.31702 6.47144L0.656534 9.35717C-0.218845 10.2327 -0.218845 11.6521 0.656534 12.5276C1.04597 12.9171 1.54304 13.1329 2.05199 13.1758L8.26209 8.41677L6.31702 6.47144Z" fill="#FFC726"/>
</svg>
