<svg width="64" height="50" viewBox="0 0 64 50" fill="none" xmlns="http://www.w3.org/2000/svg">
<path d="M5.85938 1.46484L5.85938 8.93731C2.52041 9.61787 4.4627e-07 12.5766 4.04095e-07 16.1133C3.6192e-07 19.65 2.52041 22.6087 5.85938 23.2893L5.85938 48.5352C5.85938 49.3448 6.51455 50 7.32422 50C8.13389 50 8.78906 49.3448 8.78906 48.5352L8.78906 23.2893C12.128 22.6087 14.6484 19.65 14.6484 16.1133C14.6484 12.5766 12.128 9.61787 8.78906 8.93731L8.78906 1.46484C8.78906 0.655174 8.13389 9.69956e-08 7.32422 8.73404e-08C6.51455 7.76852e-08 5.85938 0.655174 5.85938 1.46484Z" fill="#303030"/>
<path d="M30.5078 1.46484L30.5078 26.6131C27.1688 27.2937 24.6484 30.2523 24.6484 33.7891C24.6484 37.3258 27.1688 40.2845 30.5078 40.965L30.5078 48.5352C30.5078 49.3448 31.163 50 31.9727 50C32.7823 50 33.4375 49.3448 33.4375 48.5352L33.4375 40.965C36.7765 40.2845 39.2969 37.3258 39.2969 33.7891C39.2969 30.2523 36.7765 27.2937 33.4375 26.6131L33.4375 1.46484C33.4375 0.655174 32.7823 9.69956e-08 31.9727 8.73404e-08C31.163 7.76852e-08 30.5078 0.655174 30.5078 1.46484Z" fill="#303030"/>
<path d="M55.1563 1.46484L55.1563 8.93731C51.8173 9.61787 49.2969 12.5766 49.2969 16.1133C49.2969 19.65 51.8173 22.6087 55.1563 23.2893L55.1563 48.5352C55.1563 49.3448 55.8114 50 56.6211 50C57.4308 50 58.0859 49.3448 58.0859 48.5352L58.0859 23.2893C61.4249 22.6087 63.9453 19.65 63.9453 16.1133C63.9453 12.5766 61.4249 9.61787 58.0859 8.93731L58.0859 1.46484C58.0859 0.655174 57.4308 9.69956e-08 56.6211 8.73404e-08C55.8114 7.76852e-08 55.1563 0.655174 55.1563 1.46484Z" fill="#303030"/>
</svg>
