<svg width="16" height="19" viewBox="0 0 16 19" fill="none" xmlns="http://www.w3.org/2000/svg">
<path d="M13.3125 6.85417H11.9987V3.8562C11.9987 1.72987 10.2323 0 8.06115 0C5.89002 0 4.12365 1.72987 4.12365 3.8562V6.85417H2.8125C1.60631 6.85417 0.625 7.83548 0.625 9.04167V16.4792C0.625 17.6854 1.60631 18.6667 2.8125 18.6667H13.3125C14.5187 18.6667 15.5 17.6854 15.5 16.4792V9.04167C15.5 7.83548 14.5187 6.85417 13.3125 6.85417ZM5.58198 3.8562C5.58198 2.534 6.69415 1.45833 8.06115 1.45833C9.42816 1.45833 10.5403 2.534 10.5403 3.8562V6.85417H5.58198V3.8562ZM14.0417 16.4792C14.0417 16.8812 13.7146 17.2083 13.3125 17.2083H2.8125C2.41044 17.2083 2.08333 16.8812 2.08333 16.4792V9.04167C2.08333 8.6396 2.41044 8.3125 2.8125 8.3125H13.3125C13.7146 8.3125 14.0417 8.6396 14.0417 9.04167V16.4792Z" fill="#FF87A1"/>
<path d="M8.06234 10.4271C7.31731 10.4271 6.71338 11.031 6.71338 11.7761C6.71338 12.2518 6.95984 12.6696 7.33182 12.9098V14.5104C7.33182 14.9131 7.65827 15.2396 8.06099 15.2396C8.46367 15.2396 8.79016 14.9131 8.79016 14.5104V12.9115C9.16363 12.6717 9.4113 12.2529 9.4113 11.7761C9.4113 11.031 8.80736 10.4271 8.06234 10.4271Z" fill="#FF87A1"/>
</svg>
