<svg width="15" height="19" viewBox="0 0 15 19" fill="none" xmlns="http://www.w3.org/2000/svg">
<path d="M12.6875 6.85417H11.3737V3.8562C11.3737 1.72987 9.60728 0 7.43615 0C5.26502 0 3.49865 1.72987 3.49865 3.8562V6.85417H2.1875C0.981312 6.85417 0 7.83548 0 9.04167V16.4792C0 17.6854 0.981312 18.6667 2.1875 18.6667H12.6875C13.8937 18.6667 14.875 17.6854 14.875 16.4792V9.04167C14.875 7.83548 13.8937 6.85417 12.6875 6.85417ZM4.95698 3.8562C4.95698 2.534 6.06915 1.45833 7.43615 1.45833C8.80316 1.45833 9.91532 2.534 9.91532 3.8562V6.85417H4.95698V3.8562ZM13.4167 16.4792C13.4167 16.8812 13.0896 17.2083 12.6875 17.2083H2.1875C1.78544 17.2083 1.45833 16.8812 1.45833 16.4792V9.04167C1.45833 8.6396 1.78544 8.3125 2.1875 8.3125H12.6875C13.0896 8.3125 13.4167 8.6396 13.4167 9.04167V16.4792Z" fill="#36A0EB"/>
<path d="M7.43783 10.4271C6.6928 10.4271 6.08887 11.031 6.08887 11.7761C6.08887 12.2518 6.33533 12.6696 6.70731 12.9098V14.5104C6.70731 14.9131 7.03376 15.2396 7.43648 15.2396C7.83916 15.2396 8.16564 14.9131 8.16564 14.5104V12.9115C8.53912 12.6717 8.78678 12.2529 8.78678 11.7761C8.78678 11.031 8.18285 10.4271 7.43783 10.4271Z" fill="#36A0EB"/>
</svg>
