<svg width="17" height="18" viewBox="0 0 17 18" fill="none" xmlns="http://www.w3.org/2000/svg">
<path d="M8.8498 15.127C9.29012 15.5673 9.29012 16.2815 8.8498 16.7218C8.40949 17.1625 7.69533 17.1625 7.25484 16.7218L0.330007 9.79726C0.109955 9.5771 0 9.28847 0 8.99988C0 8.71136 0.110169 8.42277 0.330007 8.20272L7.25484 1.2781C7.69533 0.837604 8.40949 0.837604 8.8498 1.2781C9.29012 1.71842 9.29012 2.43246 8.8498 2.873L2.72271 8.99988L8.8498 15.127ZM9.74263 8.99988L15.8698 2.87296C16.3101 2.43246 16.3101 1.71838 15.8698 1.27806C15.4294 0.837569 14.7153 0.837569 14.2748 1.27806L7.34996 8.20272C7.12991 8.42298 7.01992 8.71136 7.01992 8.99988C7.01992 9.28851 7.13013 9.5771 7.34996 9.79726L14.2748 16.7218C14.7153 17.1625 15.4294 17.1625 15.8698 16.7218C16.3101 16.2814 16.3101 15.5673 15.8698 15.127L9.74263 8.99988Z" fill="#303030"/>
</svg>
