<svg width="21" height="21" viewBox="0 0 21 21" fill="none" xmlns="http://www.w3.org/2000/svg">
<rect width="21" height="21" rx="5" fill="#303030"/>
<path d="M10.818 4.45459C7.30388 4.45459 4.45459 7.30388 4.45459 10.818C4.45459 14.332 7.30388 17.1819 10.818 17.1819C14.332 17.1819 17.1819 14.332 17.1819 10.818C17.1819 7.30388 14.332 4.45459 10.818 4.45459ZM12.1427 14.3169C11.8151 14.4462 11.5544 14.5443 11.3588 14.6122C11.1638 14.68 10.937 14.714 10.679 14.714C10.2825 14.714 9.97378 14.617 9.75398 14.4236C9.53419 14.2302 9.42483 13.9851 9.42483 13.6872C9.42483 13.5714 9.43291 13.4528 9.44907 13.3322C9.46577 13.2115 9.49217 13.0757 9.52826 12.9233L9.93823 11.4752C9.97432 11.3362 10.0056 11.2042 10.0303 11.0814C10.0551 10.9575 10.067 10.8438 10.067 10.7404C10.067 10.5561 10.0287 10.4268 9.95277 10.3541C9.87573 10.2814 9.73082 10.2458 9.51479 10.2458C9.4092 10.2458 9.30038 10.2615 9.18887 10.2943C9.07843 10.3283 8.98254 10.359 8.90388 10.3891L9.01217 9.94307C9.28045 9.83371 9.53742 9.73998 9.78254 9.6624C10.0277 9.58375 10.2593 9.54496 10.4775 9.54496C10.8713 9.54496 11.1751 9.64085 11.389 9.83048C11.6018 10.0207 11.709 10.2679 11.709 10.5718C11.709 10.6348 11.7015 10.7458 11.6869 10.9042C11.6724 11.0631 11.6449 11.208 11.605 11.3411L11.1972 12.7848C11.1638 12.9007 11.1342 13.0332 11.1072 13.1813C11.0809 13.3295 11.0679 13.4426 11.0679 13.5186C11.0679 13.7103 11.1105 13.8413 11.1967 13.9108C11.2818 13.9802 11.431 14.0153 11.6422 14.0153C11.7419 14.0153 11.8534 13.9975 11.9794 13.963C12.1044 13.9285 12.1949 13.8978 12.252 13.8714L12.1427 14.3169ZM12.0705 8.45674C11.8803 8.63345 11.6514 8.7218 11.3836 8.7218C11.1164 8.7218 10.8858 8.63345 10.6941 8.45674C10.5033 8.28004 10.4069 8.06509 10.4069 7.81405C10.4069 7.56355 10.5039 7.34806 10.6941 7.16974C10.8858 6.99089 11.1164 6.902 11.3836 6.902C11.6514 6.902 11.8809 6.99089 12.0705 7.16974C12.2607 7.34806 12.356 7.56355 12.356 7.81405C12.356 8.06563 12.2607 8.28004 12.0705 8.45674Z" fill="#FFC726"/>
</svg>
