<svg width="16" height="19" viewBox="0 0 16 19" fill="none" xmlns="http://www.w3.org/2000/svg">
<path d="M13.625 8.39167H13V4.75C13 2.13037 10.7575 0 8 0C5.2425 0 3 2.13037 3 4.75V8.39167H2.375C1.34167 8.39167 0.5 9.19046 0.5 10.1729V17.2187C0.5 18.2012 1.34167 19 2.375 19H13.625C14.6583 19 15.5 18.2012 15.5 17.2187V10.1729C15.5 9.19046 14.6583 8.39167 13.625 8.39167ZM4.66667 4.75C4.66667 3.00358 6.16167 1.58333 8 1.58333C9.83833 1.58333 11.3333 3.00358 11.3333 4.75V8.39167H4.66667V4.75ZM8.83333 14.5049V16.3083C8.83333 16.7453 8.46083 17.1 8 17.1C7.53917 17.1 7.16667 16.7453 7.16667 16.3083V14.5049C6.67083 14.2302 6.33333 13.7251 6.33333 13.1417C6.33333 12.2685 7.08083 11.5583 8 11.5583C8.91917 11.5583 9.66667 12.2685 9.66667 13.1417C9.66667 13.7251 9.32917 14.2302 8.83333 14.5049Z" fill="#FF87A1"/>
</svg>
